<?xml version="1.0" encoding="UTF-8" standalone="no"?>
<!-- Created with Inkscape (http://www.inkscape.org/) -->

<svg
   xmlns:dc="http://purl.org/dc/elements/1.1/"
   xmlns:cc="http://creativecommons.org/ns#"
   xmlns:rdf="http://www.w3.org/1999/02/22-rdf-syntax-ns#"
   xmlns:svg="http://www.w3.org/2000/svg"
   xmlns="http://www.w3.org/2000/svg"
   xmlns:sodipodi="http://sodipodi.sourceforge.net/DTD/sodipodi-0.dtd"
   xmlns:inkscape="http://www.inkscape.org/namespaces/inkscape"
   width="210mm"
   height="297mm"
   viewBox="0 0 210 297"
   version="1.1"
   id="svg38"
   inkscape:version="0.92.4 (5da689c313, 2019-01-14)"
   sodipodi:docname="horse.svg">
  <defs
     id="defs32" />
  <sodipodi:namedview
     id="base"
     pagecolor="#ffffff"
     bordercolor="#666666"
     borderopacity="1.0"
     inkscape:pageopacity="0.0"
     inkscape:pageshadow="2"
     inkscape:zoom="1.4"
     inkscape:cx="425.74938"
     inkscape:cy="711.46325"
     inkscape:document-units="mm"
     inkscape:current-layer="layer1"
     showgrid="false"
     inkscape:window-width="3840"
     inkscape:window-height="1973"
     inkscape:window-x="-18"
     inkscape:window-y="-18"
     inkscape:window-maximized="1" />
  <metadata
     id="metadata35">
    <rdf:RDF>
      <cc:Work
         rdf:about="">
        <dc:format>image/svg+xml</dc:format>
        <dc:type
           rdf:resource="http://purl.org/dc/dcmitype/StillImage" />
        <dc:title></dc:title>
      </cc:Work>
    </rdf:RDF>
  </metadata>
  <g
     inkscape:label="Livello 1"
     inkscape:groupmode="layer"
     id="layer1">
    <path
       style="fill:#000000;stroke-width:0.30985072"
       d="m 84.116673,293.05189 c -17.95822,-1.96864 -30.126869,-5.21503 -38.1493,-10.17753 -4.371762,-2.70422 -6.278651,-5.06953 -7.469049,-9.26422 -0.547982,-1.93091 -0.970026,-7.23165 -0.935464,-11.74919 0.02741,-3.59506 0.563053,-5.00415 2.655611,-6.98748 l 1.131253,-1.07225 -1.07321,-2.27731 c -1.66608,-3.5354 -2.14255,-5.5305 -2.084325,-8.72733 0.07329,-4.02189 0.703742,-5.04413 6.572514,-10.65471 5.890996,-5.63209 7.695104,-7.64066 10.135776,-11.28439 l 1.962047,-2.92926 -2.788692,-0.72102 c -3.511053,-0.90778 -5.200756,-1.63074 -7.980229,-3.41359 -3.506408,-2.24919 -5.523277,-4.70426 -6.780694,-8.25407 -0.848237,-2.39459 -0.874917,-4.11104 -0.140727,-9.04142 0.430927,-2.89317 0.685524,-3.69357 1.749493,-5.49981 2.438974,-4.14063 6.394631,-9.94806 15.313567,-22.48283 2.656097,-3.73279 5.205562,-7.51744 5.665634,-8.41011 0.988723,-1.9189 7.749486,-12.42944 11.502137,-17.88148 2.73476,-3.97341 8.733503,-14.29206 8.461783,-14.5558 -0.08469,-0.0822 -1.537218,-0.0795 -3.227453,0.007 l -3.073096,0.15553 -1.162943,1.44432 c -1.807403,2.24431 -6.298437,4.49733 -11.05472,5.54554 -2.325274,0.51248 -7.403159,0.11643 -9.76158,-0.76119 -0.788279,-0.29345 -2.674678,-0.66152 -4.191996,-0.81796 -3.210193,-0.33104 -4.914302,-1.02376 -5.729951,-2.3291 -0.764138,-1.2231 -0.720534,-1.89125 0.231756,-3.55757 l 0.789347,-1.38123 -1.313251,-0.3414 c -3.64778,-0.94873 -3.74783,-1.05576 -4.117464,-4.39947 -0.09116,-0.82429 -0.35876,-2.42942 -0.594727,-3.56691 -0.235971,-1.13754 -0.38855,-2.68818 -0.339066,-3.44625 0.04955,-0.7578 -0.08495,-1.95211 -0.298648,-2.65358 -0.33035,-1.08486 -0.311125,-1.44897 0.129205,-2.43257 0.313955,-0.70181 0.412306,-1.31859 0.249961,-1.56839 -0.474699,-0.73066 -0.248068,-4.05968 0.310282,-4.55881 0.579519,-0.51807 2.11974,-0.89655 4.667071,-1.14685 0.97354,-0.0954 2.061965,-0.30757 2.418748,-0.47074 1.618662,-0.74034 5.912785,-4.276019 7.500208,-6.175265 1.871076,-2.238431 5.404675,-6.132987 9.402246,-10.362246 1.356262,-1.434863 3.543089,-3.948954 4.859586,-5.586934 l 2.393591,-2.97808 -0.885682,-3.421447 c -0.998654,-3.857962 -1.07087,-6.101451 -0.263093,-8.169515 1.128549,-2.889036 3.334711,-3.977304 7.975894,-3.934018 1.2903,0.01125 2.927332,-0.128923 3.637855,-0.313454 1.135401,-0.2947 1.37682,-0.522313 1.993211,-1.878553 0.385735,-0.848829 1.669919,-2.577168 2.853723,-3.840766 1.183814,-1.263512 2.386804,-2.699183 2.67335,-3.190366 0.286552,-0.491137 0.735668,-1.05211 0.998108,-1.246568 0.262339,-0.194506 0.58798,-0.848219 0.72356,-1.45271 0.31467,-1.402596 3.479646,-10.106096 3.995343,-10.986825 1.149655,-1.963755 3.698211,0.639435 7.209777,7.364064 l 1.30031,2.490053 1.17921,-1.05415 c 1.88449,-1.684658 2.60588,-1.760163 14.61174,-1.530384 l 10.78939,0.206413 0.72175,-1.257354 c 0.8682,-1.512638 3.1038,-4.530917 4.06195,-5.484114 1.19775,-1.191549 2.40344,-1.597264 3.46188,-1.164941 1.32784,0.542382 1.89774,1.661571 3.762,7.388462 2.00681,6.165017 2.67557,9.229645 2.62212,12.017348 l -0.0371,2.095925 1.90166,1.08023 c 1.84459,1.047957 3.05108,2.392082 3.03185,3.377845 -0.006,0.264699 -0.47046,1.24766 -1.03396,2.184273 l -1.0245,1.70308 0.77338,0.801759 c 2.20861,2.290158 2.63863,5.271995 1.13837,7.89454 -0.6915,1.20888 -0.78066,1.563643 -0.44009,1.752449 1.75421,0.971505 2.73919,1.864066 3.336,3.022964 0.92628,1.798805 0.87363,3.971558 -0.13944,5.743711 l -0.76455,1.337585 2.3046,1.468558 c 2.51321,1.60141 3.56446,2.911116 3.53158,4.400103 -0.0242,1.086999 -1.2754,3.828916 -3.72836,8.168888 -0.91983,1.62734 -1.6739,3.20142 -1.6756,3.49749 0.003,0.29635 0.54258,1.8043 1.20938,3.35129 1.67714,3.89015 2.44363,6.93677 2.44601,9.72186 0.002,2.28474 -0.045,2.43378 -1.38417,4.40583 l -1.3861,2.0407 0.21202,3.74214 c 0.1166,2.05815 0.32512,5.70163 0.46342,8.09637 0.32674,5.66131 0.0193,7.0242 -1.99258,8.82259 l -1.43726,1.28461 -0.0939,4.25265 c -0.0876,4.37971 0.11544,11.57259 0.54507,18.92082 0.1348,2.30573 0.22422,8.09497 0.19871,12.86525 -0.0253,4.77034 0.003,10.63893 0.0618,13.04148 0.0872,3.50176 -0.0113,4.86465 -0.49189,6.87001 -1.44219,6.00573 -4.32109,11.19019 -8.32442,14.9915 -2.90916,2.76218 -2.54432,4.75582 1.99979,10.9286 1.14696,1.55823 3.38511,4.20379 4.97362,5.87925 4.52485,4.77271 5.75656,6.24823 6.9774,8.35886 1.10876,1.9169 1.13407,2.03718 1.0136,4.82403 -0.13969,3.23901 -1.00999,5.71176 -3.05052,8.67087 -1.2383,1.79559 -1.23797,1.80447 0.15972,3.51811 1.42223,1.74374 1.85078,3.41615 1.7473,6.81859 -0.18246,5.99977 -2.49722,14.07135 -4.98973,17.39881 -2.03813,2.72107 -7.826,5.11064 -16.54852,6.83232 -3.67086,0.7245 -6.7611,1.14271 -19.37261,2.62176 -1.23949,0.14535 -7.02137,0.22466 -12.84862,0.17615 -8.485877,-0.0706 -11.774669,-0.21766 -16.5214,-0.73782 z M 99.636698,33.284219 c -0.285215,-1.297048 -3.209396,-21.739446 -3.19606,-22.343452 0.008,-0.346001 0.09759,-0.627489 0.199922,-0.625546 0.102378,0.0023 2.924364,1.450792 6.27106,3.219658 3.34673,1.768854 6.81879,3.579353 7.71551,4.02331 l 1.63066,0.807228 5.39352,-7.810361 c 3.6687,-5.3124597 5.56965,-7.8069607 5.94381,-7.7998137 0.37425,0.00828 2.16363,2.5723262 5.59495,8.0206467 l 5.04459,8.010087 1.6648,-0.743726 c 0.91553,-0.409061 4.34569,-2.029064 7.62247,-3.599996 5.50926,-2.641264 6.85721,-3.071013 6.83753,-2.179943 -0.0102,0.42496 -3.93972,21.041297 -4.18712,21.963575 -0.15043,0.560597 -0.28491,0.621994 -0.78677,0.359301 -0.33292,-0.174253 -1.52058,-0.533094 -2.63913,-0.797416 -9.93859,-2.348226 -33.76251,-2.57315 -41.20973,-0.388993 -1.758852,0.515832 -1.761401,0.515664 -1.900012,-0.114549 z"
       id="path21"
       inkscape:connector-curvature="0" />
  </g>
</svg>
